<svg xmlns="http://www.w3.org/2000/svg" width="800" height="1280" viewBox="0 0 800 1280" role="img" aria-labelledby="title desc">
  <title id="title">T-Display-S3 iKuai monitor UI v2</title>
  <desc id="desc">A refined ten-page CUKTECH-inspired network monitor interface for a 320 by 170 screen.</desc>
  <style>
    .sheet{fill:#101318}.screen{fill:#000;stroke:#303844;stroke-width:1}
    .t{font-family:'D-DIN','Bahnschrift','Rajdhani',Arial,sans-serif;fill:#f5f7fa}
    .d{font-family:'D-DIN','Bahnschrift','Rajdhani',Arial,sans-serif;fill:#8a93a3}
    .i{font-family:'D-DIN','Bahnschrift','Rajdhani',Arial,sans-serif;fill:#4a5260}
    .c{fill:#37c4d6}.b{fill:#3fa9f5}.o{fill:#ff7a1a}.g{fill:#36d27e}.r{fill:#ff4057}.y{fill:#ffc800}
    .line{stroke:#1c222b;stroke-width:1}.guide{stroke:#25313e;stroke-width:1;opacity:.55}
    .cd{fill:none;stroke:#37c4d6;stroke-width:2}.bu{fill:none;stroke:#3fa9f5;stroke-width:1.5}.op{fill:none;stroke:#ff7a1a;stroke-width:1.5}
    .cap{font:600 13px Arial,sans-serif;fill:#9da8b8;letter-spacing:.3px}
    .tag{font:600 10px Arial,sans-serif;letter-spacing:.6px}
    .dots{fill:#3a4150}.dot-on{fill:#ffc800}
  </style>
  <rect class="sheet" width="800" height="1280"/>
  <text class="t" x="20" y="24" font-size="16" letter-spacing="1.2">T-DISPLAY-S3 · IKUAI MONITOR · UI V2</text>
  <text class="d" x="780" y="24" text-anchor="end" font-size="11">320 × 170 · NETWORK PROFILE · CUKTECH GRAMMAR</text>

  <!-- reusable ten-page navigation indicator -->
  <defs>
    <g id="dots"><circle class="dots" cx="0" cy="0" r="2"/><circle class="dots" cx="8" cy="0" r="2"/><circle class="dots" cx="16" cy="0" r="2"/><circle class="dots" cx="24" cy="0" r="2"/><circle class="dots" cx="32" cy="0" r="2"/><circle class="dots" cx="40" cy="0" r="2"/><circle class="dots" cx="48" cy="0" r="2"/><circle class="dots" cx="56" cy="0" r="2"/><circle class="dots" cx="64" cy="0" r="2"/><circle class="dot-on" cx="72" cy="0" r="2"/></g>
  </defs>

  <!-- 01 -->
  <g transform="translate(20 58)"><text class="cap" y="-10">01 · BALANCED OVERVIEW</text><rect class="screen" width="350" height="170" rx="3"/>
    <circle class="g" cx="16" cy="13" r="3"/><text class="t" x="25" y="17" font-size="11">WAN ONLINE</text><text class="o" x="338" y="17" text-anchor="end" font-size="10">PING 8 MS</text>
    <rect class="c" x="12" y="25" width="48" height="14" rx="7"/><text class="tag" x="36" y="35" text-anchor="middle" fill="#000">DOWN</text><rect class="b" x="188" y="25" width="32" height="14" rx="7"/><text class="tag" x="204" y="35" text-anchor="middle" fill="#000">UP</text>
    <text class="t" x="12" y="72" font-size="35" font-style="italic">9.36</text><text class="c" x="108" y="68" font-size="11">MB/s</text><text class="t" x="188" y="72" font-size="35" font-style="italic">1.02</text><text class="b" x="280" y="68" font-size="11">MB/s</text>
    <line class="line" x1="12" y1="83" x2="338" y2="83"/><text class="d" x="12" y="99" font-size="10">10S LIVE</text>
    <path class="cd" d="M12 132 C42 110 61 121 92 125 S142 143 178 117 S236 107 267 128 S310 133 338 112"/><path class="bu" d="M12 143 C80 139 122 145 177 141 S270 145 338 138"/>
    <text class="d" x="12" y="162" font-size="9">IP 192.168.9.2</text><text class="d" x="338" y="162" text-anchor="end" font-size="9">IKUAI LIVE</text><use href="#dots" x="250" y="162"/>
  </g>

  <!-- 02 -->
  <g transform="translate(430 58)"><text class="cap" y="-10">02 · ONE QUESTION / DOWNLOAD</text><rect class="screen" width="350" height="170" rx="3"/>
    <text class="d" x="12" y="17" font-size="10">THROUGHPUT FOCUS</text><text class="o" x="338" y="17" text-anchor="end" font-size="10">8 MS</text><rect class="c" x="12" y="28" width="96" height="14" rx="7"/><text class="tag" x="60" y="38" text-anchor="middle" fill="#000">TOTAL DOWN</text>
    <text class="t" x="175" y="91" text-anchor="middle" font-size="54" font-style="italic">9.36</text><text class="c" x="175" y="108" text-anchor="middle" font-size="11">MB/s</text>
    <text class="d" x="12" y="132" font-size="11">UP 1.02 MB/s</text><text class="y" x="338" y="132" text-anchor="end" font-size="10">PEAK 11.8</text><line class="line" x1="12" y1="144" x2="338" y2="144"/><path class="cd" d="M12 159 C59 150 91 161 132 154 S218 157 270 150 S317 157 338 151"/>
  </g>

  <!-- 03 -->
  <g transform="translate(20 278)"><text class="cap" y="-10">03 · DUAL LANES / PHYSICAL TOPOLOGY</text><rect class="screen" width="350" height="170" rx="3"/>
    <text class="g" x="12" y="17" font-size="10">● WAN ONLINE</text><text class="o" x="338" y="17" text-anchor="end" font-size="10">PING 8 MS</text><line class="line" x1="175" y1="27" x2="175" y2="145"/>
    <rect class="c" x="12" y="30" width="48" height="14" rx="7"/><text class="tag" x="36" y="40" text-anchor="middle" fill="#000">DOWN</text><text class="t" x="12" y="82" font-size="37" font-style="italic">9.36</text><text class="c" x="12" y="101" font-size="10">MB/s</text><path class="cd" d="M12 130 C38 113 57 134 80 117 S121 126 164 107"/>
    <rect class="b" x="188" y="30" width="32" height="14" rx="7"/><text class="tag" x="204" y="40" text-anchor="middle" fill="#000">UP</text><text class="t" x="188" y="82" font-size="37" font-style="italic">1.02</text><text class="b" x="188" y="101" font-size="10">MB/s</text><path class="bu" d="M188 130 C217 124 238 132 260 119 S307 124 338 115"/>
    <text class="d" x="12" y="162" font-size="9">10S LIVE · IP 192.168.9.2</text><use href="#dots" x="250" y="162"/>
  </g>

  <!-- 04 -->
  <g transform="translate(430 278)"><text class="cap" y="-10">04 · TREND FIRST / STATE TEXTURE</text><rect class="screen" width="350" height="170" rx="3"/>
    <text class="c" x="12" y="17" font-size="10">DOWN 9.36 MB/s</text><text class="b" x="148" y="17" font-size="10">UP 1.02 MB/s</text><text class="o" x="338" y="17" text-anchor="end" font-size="10">PING 8</text><line class="line" x1="12" y1="26" x2="338" y2="26"/>
    <path d="M12 126 C37 98 62 112 88 97 S132 139 164 105 S213 88 241 110 S293 132 338 82 L338 145 L12 145 Z" fill="#37c4d6" opacity=".11"/><path class="cd" d="M12 126 C37 98 62 112 88 97 S132 139 164 105 S213 88 241 110 S293 132 338 82"/><path class="bu" d="M12 138 C68 131 116 142 166 133 S253 141 338 127"/><path class="op" d="M12 143 C77 141 114 143 155 140 S203 119 221 136 S292 141 338 137"/>
    <text class="d" x="12" y="162" font-size="9">10S RANGE</text><text class="c" x="210" y="162" font-size="9">D</text><text class="b" x="235" y="162" font-size="9">U</text><text class="o" x="260" y="162" font-size="9">P</text><use href="#dots" x="266" y="162"/>
  </g>

  <!-- 05 -->
  <g transform="translate(20 498)"><text class="cap" y="-10">05 · NETWORK HEALTH / CONCLUSION FIRST</text><rect class="screen" width="350" height="170" rx="3"/>
    <text class="g" x="175" y="34" text-anchor="middle" font-size="13">● WAN ONLINE</text><text class="d" x="175" y="54" text-anchor="middle" font-size="10">NETWORK STABLE</text><line class="line" x1="12" y1="67" x2="338" y2="67"/>
    <text class="o" x="49" y="91" text-anchor="middle" font-size="10">PING</text><text class="t" x="49" y="124" text-anchor="middle" font-size="31">8</text><text class="o" x="49" y="140" text-anchor="middle" font-size="9">MS</text><line class="line" x1="91" y1="79" x2="91" y2="145"/>
    <text class="c" x="112" y="91" font-size="10">DOWN</text><text class="t" x="112" y="124" font-size="27" font-style="italic">9.36</text><text class="c" x="112" y="140" font-size="9">MB/s</text><text class="b" x="227" y="91" font-size="10">UP</text><text class="t" x="227" y="124" font-size="27" font-style="italic">1.02</text><text class="b" x="227" y="140" font-size="9">MB/s</text><line class="line" x1="12" y1="151" x2="338" y2="151"/><text class="d" x="12" y="163" font-size="9">NO ACTIVE ALERTS · 18 CLIENTS</text><use href="#dots" x="250" y="163"/>
  </g>

  <!-- 06 -->
  <g transform="translate(430 498)"><text class="cap" y="-10">06 · DEVICE STATUS / LOCAL TELEMETRY</text><rect class="screen" width="350" height="170" rx="3"/>
    <text class="d" x="12" y="17" font-size="10">DEVICE STATUS</text><text class="b" x="338" y="17" text-anchor="end" font-size="10">LOCAL</text><line class="line" x1="12" y1="27" x2="338" y2="27"/>
    <text class="c" x="12" y="49" font-size="10">IP</text><text class="t" x="116" y="49" font-size="12">192.168.9.2</text><text class="c" x="12" y="77" font-size="10">CLIENTS</text><text class="t" x="116" y="77" font-size="12">18</text><text class="y" x="12" y="105" font-size="10">DEVICE UP</text><text class="t" x="116" y="105" font-size="12">07h 04m</text><text class="o" x="12" y="133" font-size="10">HEAP</text><text class="t" x="116" y="133" font-size="12">186 KB</text><line class="line" x1="12" y1="145" x2="338" y2="145"/><text class="d" x="12" y="162" font-size="9">BOOT: NEXT · 2X HOME · HOLD SLEEP</text><use href="#dots" x="250" y="162"/>
  </g>

  <!-- 07 -->
  <g transform="translate(20 718)"><text class="cap" y="-10">07 · ROUTER HEALTH / SYSTEM</text><rect class="screen" width="350" height="170" rx="3"/>
    <text class="d" x="12" y="17" font-size="10">ROUTER HEALTH</text><text class="g" x="338" y="17" text-anchor="end" font-size="10">ONLINE</text><line class="line" x1="12" y1="27" x2="338" y2="27"/>
    <text class="o" x="12" y="47" font-size="10">CPU</text><text class="t" x="12" y="80" font-size="32" font-style="italic">24%</text><text class="b" x="188" y="47" font-size="10">MEM</text><text class="t" x="188" y="80" font-size="32" font-style="italic">38%</text><line class="line" x1="12" y1="94" x2="338" y2="94"/><text class="y" x="12" y="116" font-size="10">TEMP 46°C</text><text class="c" x="122" y="116" font-size="10">18 CLIENTS</text><text class="b" x="240" y="116" font-size="10">186K HEAP</text><text class="d" x="12" y="141" font-size="10">UP 7D 04H</text><text class="d" x="338" y="141" text-anchor="end" font-size="10">V4.0.2</text><text class="g" x="12" y="162" font-size="9">NO ACTIVE ALERTS</text><use href="#dots" x="250" y="162"/>
  </g>

  <!-- 08 -->
  <g transform="translate(430 718)"><text class="cap" y="-10">08 · WAN DETAIL / TWO LINKS</text><rect class="screen" width="350" height="170" rx="3"/>
    <text class="y" x="12" y="17" font-size="10">WAN 1</text><text class="g" x="100" y="17" font-size="10">● ONLINE</text><text class="d" x="338" y="17" text-anchor="end" font-size="10">PRIMARY</text><line class="line" x1="12" y1="27" x2="338" y2="27"/><text class="d" x="12" y="47" font-size="9">IP</text><text class="t" x="62" y="47" font-size="11">100.64.1.2</text><text class="o" x="338" y="47" text-anchor="end" font-size="9">ONLINE</text><text class="d" x="12" y="69" font-size="9">GW</text><text class="t" x="62" y="69" font-size="11">100.64.1.1</text>
    <text class="y" x="12" y="98" font-size="10">WAN 2</text><text class="r" x="100" y="98" font-size="10">● OFFLINE</text><text class="d" x="338" y="98" text-anchor="end" font-size="10">BACKUP</text><line class="line" x1="12" y1="108" x2="338" y2="108"/><text class="i" x="12" y="129" font-size="9">IP --</text><text class="i" x="338" y="129" text-anchor="end" font-size="9">GATEWAY --</text><text class="d" x="12" y="162" font-size="9">LINK STATUS IS TEXT + COLOR + DOT</text><use href="#dots" x="250" y="162"/>
  </g>

  <!-- 09 -->
  <g transform="translate(20 938)"><text class="cap" y="-10">09 · CLIENT RANKING / ACTIONABLE</text><rect class="screen" width="350" height="170" rx="3"/>
    <text class="t" x="12" y="17" font-size="11">TOP CLIENTS</text><text class="d" x="338" y="17" text-anchor="end" font-size="10">18 ONLINE</text><line class="line" x1="12" y1="27" x2="338" y2="27"/>
    <rect class="y" x="12" y="38" width="24" height="14" rx="7"/><text class="tag" x="24" y="48" text-anchor="middle" fill="#000">#1</text><text class="t" x="49" y="49" font-size="11">MacBook-Pro</text><text class="c" x="338" y="49" text-anchor="end" font-size="11">5.42 MB/s</text>
    <text class="d" x="20" y="78" font-size="10">#2</text><text class="t" x="49" y="78" font-size="11">NAS</text><text class="c" x="338" y="78" text-anchor="end" font-size="11">2.31 MB/s</text><text class="d" x="20" y="107" font-size="10">#3</text><text class="t" x="49" y="107" font-size="11">iPhone</text><text class="c" x="338" y="107" text-anchor="end" font-size="11">0.86 MB/s</text><line class="line" x1="12" y1="122" x2="338" y2="122"/><text class="d" x="12" y="143" font-size="10">TOTAL DOWN 9.36 MB/s</text><text class="b" x="338" y="143" text-anchor="end" font-size="10">UP 1.02 MB/s</text><text class="d" x="12" y="162" font-size="9">LONG NAMES CLIP · VALUES STAY RIGHT</text><use href="#dots" x="250" y="162"/>
  </g>

  <!-- 10 -->
  <g transform="translate(430 938)"><text class="cap" y="-10">10 · WIRELESS AC / RADIO STATE</text><rect class="screen" width="350" height="170" rx="3"/>
    <text class="b" x="12" y="17" font-size="10">WIRELESS AC</text><text class="g" x="338" y="17" text-anchor="end" font-size="10">ON</text><line class="line" x1="12" y1="30" x2="338" y2="30"/><text class="c" x="12" y="52" font-size="10">AP ONLINE</text><text class="t" x="214" y="52" font-size="12">2 / 2</text><text class="y" x="12" y="85" font-size="10">2.4G</text><text class="t" x="12" y="123" font-size="34" font-style="italic">07</text><text class="o" x="188" y="85" font-size="10">5G</text><text class="t" x="188" y="123" font-size="34" font-style="italic">09</text><line class="line" x1="12" y1="142" x2="338" y2="142"/><text class="d" x="12" y="162" font-size="9">CLIENTS BY RADIO · NO ACTIVE ALERTS</text><use href="#dots" x="250" y="162"/>
  </g>
</svg>
